<svg xmlns="http://www.w3.org/2000/svg" version="1.1" xmlns:xlink="http://www.w3.org/1999/xlink" width="512" height="512" x="0" y="0" viewBox="0 0 512.02 512.02" style="enable-background:new 0 0 512 512" xml:space="preserve" class=""><g><path d="M486.41.01H25.61C11.059.474-.383 12.61.01 27.163v372.361c-.393 14.553 11.049 26.689 25.6 27.153h148.326L156.87 460.81h-28.86c-14.138 0-25.6 11.462-25.6 25.6s11.462 25.6 25.6 25.6h256c14.138 0 25.6-11.462 25.6-25.6s-11.462-25.6-25.6-25.6h-28.86l-17.067-34.133H486.41c14.551-.464 25.993-12.6 25.6-27.153V27.163C512.402 12.609 500.961.474 486.41.01zM25.61 17.076h460.8a9.532 9.532 0 0 1 8.533 10.086V358.41H17.076V27.163a9.534 9.534 0 0 1 8.534-10.087zM392.543 486.41a8.533 8.533 0 0 1-8.533 8.533h-256a8.533 8.533 0 0 1 0-17.066h256a8.532 8.532 0 0 1 8.533 8.533zm-56.473-25.6H175.95l17.067-34.133h125.986zm150.34-51.2H25.61a9.532 9.532 0 0 1-8.533-10.086v-24.047h477.867v24.047a9.533 9.533 0 0 1-8.534 10.086z" fill="#ff0050" opacity="1" data-original="#000000" class=""></path><g fill-rule="evenodd" clip-rule="evenodd"><path d="M392.543 187.743c.064 53.646-31.33 102.347-80.217 124.437s-106.184 13.466-146.403-22.037h13.286a8.533 8.533 0 0 0 0-17.066h-34.133a8.533 8.533 0 0 0-8.533 8.533v34.133c0 4.713 3.82 8.533 8.533 8.533s8.533-3.82 8.533-8.533v-13.756c54.046 48.423 134.614 52.397 193.163 9.528s79.092-120.875 49.252-187.021c-1.942-4.296-6.998-6.204-11.294-4.262s-6.204 6.998-4.262 11.294a135.408 135.408 0 0 1 12.075 56.217zM123.743 256.01a8.535 8.535 0 0 0 7.774-12.049c-26.58-58.607-8.596-127.819 43.154-166.072s123.192-35.146 171.426 7.455H332.81a8.533 8.533 0 0 0 0 17.066h34.133a8.533 8.533 0 0 0 8.533-8.533V59.743a8.533 8.533 0 0 0-17.066 0v13.756c-54.046-48.423-134.614-52.397-193.163-9.528s-79.092 120.875-49.252 187.021a8.534 8.534 0 0 0 7.748 5.018z" fill="#ff0050" opacity="1" data-original="#000000" class=""></path><path d="M230.41 247.476h.606a8.533 8.533 0 0 0 6.221-3.413l76.8-102.4a8.533 8.533 0 0 0-1.707-11.947 8.533 8.533 0 0 0-11.947 1.707l-70.895 94.532-18.645-18.645a8.533 8.533 0 0 0-11.962.104 8.533 8.533 0 0 0-.104 11.962l25.6 25.6a8.529 8.529 0 0 0 6.033 2.5z" fill="#ff0050" opacity="1" data-original="#000000" class=""></path></g></g></svg>